<?xml version="1.0" encoding="utf-8"?>
<!-- Generator: Adobe Illustrator 24.1.2, SVG Export Plug-In . SVG Version: 6.00 Build 0)  -->
<svg version="1.1" id="Layer_1" xmlns="http://www.w3.org/2000/svg" xmlns:xlink="http://www.w3.org/1999/xlink" x="0px" y="0px"
	 viewBox="0 0 362 194" style="enable-background:new 0 0 362 194;" xml:space="preserve">
<style type="text/css">
	.st0{fill:none;stroke:#1E1E1C;stroke-miterlimit:10;}
	.st1{fill:none;}
	.st2{fill:none;stroke:#000000;stroke-miterlimit:10;}
</style>
<polygon class="st0" points="92.8,13.3 228.1,13.3 227.2,69.5 91.9,69.5 "/>
<rect x="11.2" y="127.4" class="st0" width="216.9" height="56.8"/>
<g>
	<rect x="155.9" y="21.5" class="st1" width="239.8" height="39.6"/>
	<path class="st2" d="M158,58.3v-0.8l4.2-2l1-26.8l-4.3-2V26h12.2l9.9,22.8l9.8-22.8h11.8v0.8l-4.3,1.5l0.8,27.2l3.7,2v0.8h-14.9
		v-0.8l3.9-2l-0.5-23.3l-11.2,26.3h-2.8l-11.3-26.2l-0.6,23.2l4.3,2v0.8L158,58.3L158,58.3z"/>
	<path class="st2" d="M215.5,58.8c-2,0-3.6-0.5-4.8-1.5c-1.3-1-1.9-2.5-1.9-4.5V38.3l-3.2-1.6v-0.8h10.2v14.8c0,1.1,0.3,2,1,2.6
		c0.6,0.6,1.5,0.9,2.5,0.9c0.6,0,1.3-0.1,2-0.3c0.7-0.2,1.3-0.5,1.8-0.9V38.3l-3-1.6V36h9.9v20l3.1,1.5v0.8h-10v-3.1h-0.2
		c-1.1,1.1-2.3,2-3.3,2.7C218.3,58.5,217,58.8,215.5,58.8z"/>
	<path class="st2" d="M244,58.8c-1.6,0-3-0.2-4.2-0.5s-2.4-0.7-3.5-1.3v-5.7h0.7l1.7,2.6c1.2,1.8,2.9,2.7,5.1,2.7
		c2.5,0,3.8-0.9,3.8-2.8c0-0.7-0.2-1.2-0.5-1.7c-0.4-0.4-0.9-0.8-1.7-1.2c-0.8-0.4-1.9-0.9-3.3-1.5c-1.8-0.8-3.2-1.6-4.1-2.6
		c-0.9-1-1.3-2.3-1.3-3.8c0-1.4,0.4-2.7,1.1-3.8c0.7-1.1,1.7-2.1,3-2.7s2.7-1,4.3-1c1.1,0,2.2,0.1,3.3,0.3c1.1,0.2,2.1,0.6,3.1,1.1
		v5.8h-0.7l-1.5-2.3c-0.6-0.9-1.3-1.6-1.9-2.1s-1.4-0.7-2.4-0.7c-1,0-1.8,0.2-2.4,0.7c-0.6,0.5-0.9,1.2-0.9,2.1
		c0,0.6,0.1,1.1,0.4,1.5c0.3,0.4,0.8,0.8,1.5,1.2s1.8,0.9,3.1,1.4c0.9,0.4,1.8,0.8,2.7,1.2c0.9,0.5,1.6,1.1,2.3,2
		c0.6,0.9,0.9,2.1,0.9,3.6c0,1.5-0.4,2.9-1.2,4s-1.9,2-3.2,2.6C246.9,58.5,245.5,58.8,244,58.8z"/>
	<path class="st2" d="M268,58.8c-3.4,0-6-1-8-2.9c-2-1.9-2.9-4.5-2.9-7.7c0-2.5,0.5-4.7,1.6-6.6s2.5-3.4,4.4-4.5
		c1.8-1.1,3.9-1.6,6.1-1.6c2.6,0,4.7,0.9,6.2,2.6s2.2,4.3,2.3,7.5l-0.2,0.2h-13.8v0.2c0,1.4,0.3,2.6,0.8,3.8c0.5,1.1,1.4,2,2.5,2.7
		s2.6,1,4.4,1c1,0,1.9-0.1,3-0.3s2.1-0.6,3.2-1.2h0.1v0.8c-0.8,1.7-2.1,3.2-3.8,4.3C272.3,58.2,270.3,58.8,268,58.8z M268.1,37.7
		c-1.1,0-2.1,0.5-2.8,1.6c-0.7,1.1-1.2,2.5-1.4,4.4h8.3c-0.2-2.2-0.7-3.8-1.4-4.7C270.1,38.1,269.2,37.7,268.1,37.7z"/>
	<path class="st2" d="M290.3,58.8c-2,0-3.6-0.5-4.8-1.5c-1.3-1-1.9-2.5-1.9-4.5V38.3l-3.2-1.6v-0.8h10.2v14.8c0,1.1,0.3,2,1,2.6
		s1.5,0.9,2.5,0.9c0.6,0,1.3-0.1,2-0.3c0.7-0.2,1.3-0.5,1.8-0.9V38.3l-3-1.6V36h9.9v20l3.1,1.5v0.8h-10v-3.1h-0.2
		c-1.1,1.1-2.3,2-3.3,2.7C293.1,58.5,291.8,58.8,290.3,58.8z"/>
	<path class="st2" d="M310.1,58.3v-0.8l3.3-1.6V41l-3.1-2v-0.6l8.9-3h0.6l0.4,3.6h0.2c1.1-1.1,2.3-2,3.3-2.7s2.4-1,3.9-1
		c1.6,0,3,0.3,4.1,1s1.9,1.7,2.3,3.1h0.2c1.2-1.3,2.4-2.3,3.6-3c1.1-0.7,2.5-1.1,4.1-1.1c1.9,0,3.5,0.5,4.8,1.5
		c1.2,1,1.9,2.5,1.9,4.5v14.5l3.2,1.6v0.8h-12.7v-0.8l2.5-1.6V43.5c0-1.1-0.3-2-1-2.6c-0.6-0.6-1.5-0.9-2.5-0.9
		c-0.7,0-1.4,0.1-2.1,0.4c-0.7,0.3-1.3,0.6-1.8,1.1v14.5l2.5,1.6v0.8H325v-0.8l2.4-1.6V43.5c0-1.1-0.3-2-1-2.6
		c-0.6-0.6-1.5-0.9-2.5-0.9c-0.6,0-1.2,0.1-1.9,0.3c-0.7,0.2-1.3,0.5-1.8,0.9v14.7l2.4,1.6v0.8L310.1,58.3L310.1,58.3z"/>
</g>
<g>
	<rect x="76.1" y="136" class="st1" width="329" height="42"/>
	<path class="st2" d="M78.2,172.8V172l4.2-2v-26.8l-4.2-2v-0.8h15.7c2.4,0,4.4,0.3,6.3,0.8s3.3,1.3,4.4,2.4s1.6,2.4,1.6,4
		c0,1.7-0.6,3.2-1.9,4.6c-1.3,1.4-3.1,2.4-5.4,2.9c3.2,0.4,5.7,1.4,7.5,2.8s2.7,3.2,2.7,5.4c0,1.8-0.6,3.4-1.8,4.8
		c-1.2,1.4-2.9,2.5-5,3.4s-4.5,1.2-7.2,1.2L78.2,172.8L78.2,172.8z M91.5,143.1h-1.7v11.8h2c2.2,0,3.8-0.5,5.1-1.5s1.8-2.4,1.8-4.2
		C98.6,145.1,96.2,143.1,91.5,143.1z M93.2,157.3h-3.4v12.8h3.7c2.4,0,4.3-0.6,5.7-1.8c1.4-1.2,2-2.8,2-4.7c0-2.2-0.7-3.8-2.1-4.8
		C97.7,157.8,95.8,157.3,93.2,157.3z"/>
	<path class="st2" d="M124.9,173.2c-2.3,0-4.4-0.5-6.1-1.6s-3.1-2.5-4.1-4.2c-1-1.8-1.5-3.7-1.5-5.8c0-2.2,0.5-4.1,1.5-5.9
		s2.4-3.2,4.1-4.2c1.8-1,3.8-1.6,6.1-1.6c2.3,0,4.4,0.5,6.1,1.6c1.8,1,3.1,2.5,4.1,4.2c1,1.8,1.5,3.7,1.5,5.9c0,2.1-0.5,4.1-1.5,5.8
		c-1,1.8-2.3,3.2-4.1,4.2C129.2,172.7,127.2,173.2,124.9,173.2z M125.4,170.8c0.9,0,1.7-0.4,2.3-1.1c0.6-0.8,1-1.8,1.3-3.1
		c0.3-1.3,0.4-2.6,0.4-4.1c0-1.8-0.2-3.4-0.5-5s-0.9-2.8-1.6-3.8c-0.7-1-1.7-1.5-2.9-1.5c-1,0-1.8,0.4-2.4,1.1s-1.1,1.8-1.4,3
		s-0.4,2.6-0.4,4.1c0,1.8,0.2,3.5,0.5,5s0.9,2.8,1.7,3.8C123.2,170.4,124.2,170.8,125.4,170.8z"/>
	<path class="st2" d="M139.9,172.8V172l3.2-1.6v-14.6l-3.1-2.3v-0.6l8.9-3h0.6l0.4,4.4h0.2c0.8-1.2,1.5-2.2,2.1-2.8s1.2-1.1,1.8-1.3
		c0.6-0.2,1.2-0.3,1.8-0.3c0.3,0,0.6,0,0.9,0.1c0.3,0.1,0.6,0.2,0.9,0.3c1,0.3,1.5,0.8,1.5,1.4c0,0.3-0.1,0.6-0.2,0.8l-1.2,3.2h-0.3
		l-1.3-0.4c-0.9-0.3-1.7-0.4-2.6-0.4c-1.4,0-2.6,0.6-3.6,1.9v13.7l4,1.6v0.8H139.9z"/>
	<path class="st2" d="M168.9,173.2c-1.4,0-2.8-0.4-4-1.2c-1.3-0.8-2.3-2-3-3.5c-0.8-1.5-1.1-3.3-1.1-5.3c0-2.7,0.5-5.1,1.5-7.1
		c1-2,2.3-3.5,4.1-4.6c1.7-1.1,3.7-1.6,6-1.6c1.6,0,2.9,0.1,4.1,0.4v-8.8l-3.4-2.4v-0.5l9.6-2.7h0.6v34.5l3.4,1.4v0.8h-9.8l-0.4-2.5
		H176c-1.2,1-2.4,1.8-3.5,2.2S170.2,173.2,168.9,173.2z M167.6,161.7c0,2.6,0.6,4.5,1.7,5.7c1.1,1.2,2.4,1.8,3.7,1.8
		c0.6,0,1.1-0.1,1.6-0.2c0.5-0.2,1.1-0.4,1.6-0.7V154c-0.4-0.5-0.9-0.9-1.5-1.1s-1.2-0.4-1.9-0.4c-0.9,0-1.8,0.3-2.6,0.8
		c-0.8,0.5-1.5,1.5-2,2.8S167.6,159.3,167.6,161.7z"/>
	<path class="st2" d="M200.4,173.2c-3.4,0-6-1-8-2.9c-1.9-1.9-2.9-4.5-2.9-7.7c0-2.5,0.5-4.7,1.6-6.6s2.5-3.4,4.4-4.5
		c1.8-1.1,3.9-1.6,6.1-1.6c2.7,0,4.7,0.9,6.2,2.6c1.5,1.8,2.2,4.3,2.2,7.5l-0.2,0.2h-13.7v0.2c0,1.4,0.3,2.6,0.8,3.8s1.4,2,2.5,2.7
		c1.1,0.6,2.6,1,4.4,1c1,0,1.9-0.1,3-0.3c1-0.2,2.1-0.6,3.2-1.2h0.1v0.8c-0.8,1.7-2.1,3.2-3.8,4.3S202.7,173.2,200.4,173.2z
		 M200.5,152.1c-1.1,0-2.1,0.5-2.8,1.6c-0.7,1-1.2,2.5-1.4,4.4h8.3c-0.2-2.2-0.7-3.8-1.4-4.7C202.5,152.6,201.6,152.1,200.5,152.1z"
		/>
	<path class="st2" d="M213.6,172.8V172l3.2-1.6v-14.6l-3.1-2.3v-0.6l8.9-3h0.6l0.4,4.4h0.2c0.8-1.2,1.5-2.2,2.1-2.8s1.2-1.1,1.8-1.3
		c0.5-0.2,1.2-0.3,1.8-0.3c0.3,0,0.6,0,0.9,0.1c0.3,0.1,0.6,0.2,0.9,0.3c1,0.3,1.5,0.8,1.5,1.4c0,0.3-0.1,0.6-0.2,0.8l-1.2,3.2h-0.3
		l-1.3-0.4c-0.9-0.3-1.7-0.4-2.6-0.4c-1.4,0-2.6,0.6-3.6,1.9v13.7l4,1.6v0.8H213.6z"/>
	<path class="st2" d="M234.2,172.8V172l3.3-1.6v-28.8l-3.1-2.3v-0.6l9.5-2.7h0.6v34.4l2.9,1.6v0.8H234.2z"/>
	<path class="st2" d="M256.1,173.2c-1.6,0-3-0.5-4.1-1.5c-1.1-1-1.7-2.4-1.6-4.2c0-1.2,0.2-2.2,0.7-3s1.3-1.6,2.4-2.2
		c1.1-0.6,2.7-1.2,4.8-1.7l4.6-1.1v-3c0-1.2-0.4-2.2-1.1-3s-1.7-1.1-2.9-1.1c-1,0-1.8,0.2-2.2,0.7c-0.5,0.5-0.7,1.1-0.7,2.1v2.2
		l-0.2,0.2h-3.2c-0.5,0-0.8-0.1-1-0.3s-0.3-0.6-0.3-1.2c0-0.7,0.3-1.4,0.9-2.1c0.6-0.7,1.3-1.3,2.3-1.9c1.2-0.8,2.3-1.3,3.3-1.6
		s2.1-0.5,3.4-0.5c1.6,0,3.1,0.2,4.4,0.6c1.3,0.4,2.4,1.1,3.2,2s1.2,2.1,1.2,3.6v12.9c0.5,0.5,1.3,0.8,2.4,0.8h1.4l0.1,0.1v0.7
		c-0.4,0.6-1,1.2-1.8,1.7s-2,0.8-3.4,0.8s-2.5-0.3-3.4-0.9c-0.9-0.6-1.5-1.4-2-2.5h-0.3c-0.8,0.9-1.8,1.7-2.9,2.3
		S257.5,173.2,256.1,173.2z M256.9,166.2c0,1,0.3,1.8,0.9,2.3c0.6,0.5,1.4,0.8,2.4,0.8c0.9,0,1.8-0.2,2.8-0.6v-7.2
		c-1.6,0.4-2.9,0.8-3.8,1.2s-1.5,0.9-1.8,1.5C257,164.7,256.9,165.4,256.9,166.2z"/>
	<path class="st2" d="M275.5,172.8V172l3.3-1.6v-14.9l-3.1-2v-0.6l8.9-3h0.6l0.4,3.6h0.2c1.2-1.1,2.3-2,3.4-2.7s2.4-1,3.9-1
		c2,0,3.6,0.5,4.9,1.5c1.3,1,1.9,2.5,1.9,4.5v14.5l3.3,1.6v0.8h-12.6V172l2.5-1.6V158c0-1.1-0.3-2-1-2.6s-1.5-0.9-2.5-0.9
		c-0.6,0-1.3,0.1-2,0.3c-0.7,0.2-1.4,0.6-1.8,1v14.6l2.5,1.6v0.8H275.5z"/>
	<path class="st2" d="M314,173.2c-1.4,0-2.8-0.4-4-1.2c-1.3-0.8-2.3-2-3-3.5c-0.8-1.5-1.1-3.3-1.1-5.3c0-2.7,0.5-5.1,1.5-7.1
		c1-2,2.3-3.5,4.1-4.6c1.7-1.1,3.7-1.6,6-1.6c1.6,0,2.9,0.1,4.1,0.4v-8.8l-3.4-2.4v-0.5l9.6-2.7h0.6v34.5l3.4,1.4v0.8h-9.8l-0.4-2.5
		h-0.3c-1.2,1-2.4,1.8-3.5,2.2S315.3,173.2,314,173.2z M312.7,161.7c0,2.6,0.6,4.5,1.7,5.7c1.1,1.2,2.4,1.8,3.7,1.8
		c0.6,0,1.1-0.1,1.6-0.2c0.5-0.2,1-0.4,1.6-0.7V154c-0.4-0.5-0.9-0.9-1.5-1.1s-1.2-0.4-1.9-0.4c-1,0-1.8,0.3-2.6,0.8s-1.5,1.5-2,2.8
		S312.7,159.3,312.7,161.7z"/>
	<path class="st2" d="M343,173.2c-1.6,0-3-0.2-4.2-0.5s-2.4-0.7-3.5-1.3v-5.7h0.7l1.7,2.5c1.2,1.8,2.9,2.7,5,2.7
		c2.5,0,3.8-0.9,3.8-2.8c0-0.7-0.2-1.2-0.5-1.7c-0.4-0.4-0.9-0.8-1.7-1.2s-1.9-0.9-3.3-1.5c-1.8-0.8-3.2-1.6-4.1-2.6
		s-1.3-2.3-1.3-3.8c0-1.4,0.4-2.7,1.1-3.8c0.7-1.1,1.7-2.1,3-2.7c1.3-0.7,2.7-1,4.3-1c1.1,0,2.2,0.1,3.3,0.3
		c1.1,0.2,2.1,0.6,3.1,1.1v5.8h-0.7l-1.5-2.3c-0.6-1-1.3-1.6-1.9-2.1s-1.4-0.7-2.4-0.7c-1,0-1.8,0.2-2.4,0.7
		c-0.6,0.5-0.9,1.2-0.9,2.1c0,0.6,0.1,1.1,0.4,1.5c0.3,0.4,0.8,0.8,1.5,1.2c0.7,0.4,1.8,0.9,3.1,1.4c0.9,0.4,1.8,0.8,2.7,1.2
		s1.6,1.1,2.2,2s0.9,2.1,0.9,3.6c0,1.5-0.4,2.9-1.2,4c-0.8,1.1-1.9,2-3.2,2.5C345.9,173,344.5,173.2,343,173.2z"/>
</g>
<g>
	<rect x="234.6" y="80" class="st1" width="64" height="41.9"/>
	<path class="st2" d="M248,117.2c-2.3,0-4.4-0.5-6.1-1.6s-3.1-2.5-4.1-4.2c-1-1.8-1.5-3.7-1.5-5.8c0-2.2,0.5-4.1,1.5-5.9
		c1-1.8,2.4-3.2,4.1-4.2c1.8-1.1,3.8-1.6,6.1-1.6s4.4,0.5,6.1,1.6s3.1,2.4,4.1,4.2c1,1.8,1.5,3.7,1.5,5.9c0,2.1-0.5,4.1-1.5,5.8
		s-2.3,3.2-4.1,4.2C252.4,116.7,250.3,117.2,248,117.2z M248.5,114.8c1,0,1.7-0.4,2.3-1.1c0.6-0.8,1-1.8,1.3-3.1s0.4-2.6,0.4-4.1
		c0-1.8-0.2-3.4-0.5-5s-0.9-2.8-1.6-3.8c-0.7-1-1.7-1.5-2.9-1.5c-1,0-1.8,0.4-2.4,1.1c-0.6,0.8-1.1,1.8-1.4,3s-0.4,2.6-0.4,4.1
		c0,1.8,0.2,3.5,0.5,5c0.4,1.6,0.9,2.8,1.7,3.8C246.3,114.3,247.3,114.8,248.5,114.8z"/>
	<path class="st2" d="M262.8,116.7V116l3.3-1.6V96.6h-3.7v-2.2h3.7v-1.5c0-0.9,0.2-1.9,0.8-3.1c0.5-1.1,1.2-2.3,2.1-3.4
		c0.9-1.1,1.9-2.2,3-3.2c1.1-1,2.3-1.8,3.5-2.4c1.2-0.6,2.5-0.9,3.7-0.9c0.4,0,0.7,0.1,1.1,0.1c0.4,0.1,0.7,0.2,1,0.3
		c0.8,0.4,1.2,0.9,1.2,1.3c0,0.2-0.1,0.5-0.3,0.9l-1.3,2.6h-0.4l-0.9-0.4c-0.5-0.3-1-0.5-1.5-0.6c-0.5-0.1-1-0.2-1.5-0.2
		c-1.4,0-2.4,0.6-2.8,1.6s-0.6,3-0.6,5.6v3h5.8v2.2H273v17.8l3.8,1.5v0.8L262.8,116.7L262.8,116.7z"/>
</g>
<rect x="267.7" y="69.6" class="st2" width="61.8" height="57.1"/>
</svg>
